<?xml version="1.0" encoding="UTF-8"?>
<svg width="24" height="24" viewBox="0 0 24 24" fill="none" xmlns="http://www.w3.org/2000/svg">
  <path d="M20 10C20 5.58172 16.4183 2 12 2C7.58172 2 4 5.58172 4 10V13C4 14.1046 3.10457 15 2 15V16C3.10457 16 4 16.8954 4 18V20C4 21.1046 4.89543 22 6 22H8C9.10457 22 10 21.1046 10 20V15C10 13.8954 9.10457 13 8 13H6V10C6 6.68629 8.68629 4 12 4C15.3137 4 18 6.68629 18 10V13H16C14.8954 13 14 13.8954 14 15V20C14 21.1046 14.8954 22 16 22H18C19.1046 22 20 21.1046 20 20V18C20 16.8954 20.8954 16 22 16V15C20.8954 15 20 14.1046 20 13V10Z" fill="white"/>
</svg> 